<?xml version="1.0" encoding="UTF-8"?>
<svg version="1.1" xmlns="http://www.w3.org/2000/svg" width="688" height="419">
<path d="M0 0 C227.04 0 454.08 0 688 0 C688 138.27 688 276.54 688 419 C460.96 419 233.92 419 0 419 C0 280.73 0 142.46 0 0 Z " fill="#1E1B21" transform="translate(0,0)"/>
<path d="M0 0 C89.43 0 178.86 0 271 0 C271 0.66 271 1.32 271 2 C276.28 2.33 281.56 2.66 287 3 C287 3.66 287 4.32 287 5 C289.31 5.33 291.62 5.66 294 6 C294 6.66 294 7.32 294 8 C295.98 8.33 297.96 8.66 300 9 C300 9.66 300 10.32 300 11 C301.98 11.33 303.96 11.66 306 12 C306 12.66 306 13.32 306 14 C306.99 14.33 307.98 14.66 309 15 C309 15.66 309 16.32 309 17 C310.11375 17.0928125 310.11375 17.0928125 311.25 17.1875 C314.87129113 18.25742693 315.98712115 19.86885512 318 23 C318 23.99 318 24.98 318 26 C318.99 26.33 319.98 26.66 321 27 C321 27.99 321 28.98 321 30 C321.99 30.33 322.98 30.66 324 31 C324 31.99 324 32.98 324 34 C324.66 34 325.32 34 326 34 C327.14147191 38.54374471 327.13977375 43.00794621 327.12698364 47.66065979 C327.12854363 48.5319063 327.13010362 49.40315282 327.13171089 50.30080074 C327.13569879 53.21951263 327.13253978 56.13817249 327.12939453 59.05688477 C327.13074954 61.149628 327.13253004 63.24237099 327.13470459 65.33511353 C327.13926677 71.01879499 327.13749441 76.70245832 327.1343255 82.38614011 C327.13179599 88.3300133 327.13414107 94.27388493 327.13571167 100.21775818 C327.13753149 110.19880452 327.13513182 120.17984346 327.13037109 130.16088867 C327.12492735 141.70741225 327.12669271 153.25391817 327.1321975 164.80044132 C327.13673218 174.70795517 327.13737747 184.6154637 327.13475883 194.52297825 C327.13319821 200.44304661 327.13299646 206.36310668 327.13629532 212.28317451 C327.13917922 217.84730101 327.13718872 223.41140469 327.13140106 228.97552872 C327.13007633 231.02018763 327.13046274 233.06484845 327.13266373 235.10950661 C327.13538639 237.89513848 327.13198033 240.68069671 327.12698364 243.46632385 C327.12921436 244.28003388 327.13144509 245.0937439 327.13374341 245.9321118 C327.12142463 249.46013817 326.94799762 252.60547184 326 256 C325.34 256 324.68 256 324 256 C323.896875 256.928125 323.79375 257.85625 323.6875 258.8125 C322.99468505 262.02464205 322.6120831 263.11930017 320 265 C319.34 265 318.68 265 318 265 C317.67 266.32 317.34 267.64 317 269 C316.34 269 315.68 269 315 269 C314.67 269.99 314.34 270.98 314 272 C313.34 272 312.68 272 312 272 C312 272.66 312 273.32 312 274 C311.01 274.33 310.02 274.66 309 275 C308.2575 275.7734375 308.2575 275.7734375 307.5 276.5625 C306 278 306 278 303 278 C302.67 278.99 302.34 279.98 302 281 C301.01 281 300.02 281 299 281 C299 281.66 299 282.32 299 283 C296.36 283.33 293.72 283.66 291 284 C291 284.66 291 285.32 291 286 C287.7 286.33 284.4 286.66 281 287 C281 287.66 281 288.32 281 289 C275.25520452 290.23021898 269.60862473 290.13928019 263.76489258 290.12698364 C262.62877187 290.12854363 261.49265116 290.13010362 260.32210255 290.13171089 C256.51289894 290.13570141 252.70373515 290.13253874 248.89453125 290.12939453 C246.16449908 290.1301993 243.4344686 290.13249369 240.70443726 290.13470459 C234.0577149 290.13915008 227.41100383 290.13819123 220.76428103 290.13529195 C215.36210967 290.13303313 209.95994147 290.13272747 204.55776978 290.13381577 C203.40426205 290.13404561 203.40426205 290.13404561 202.22745115 290.13428011 C200.66520874 290.13459983 199.10296633 290.13492405 197.54072392 290.1352527 C182.89322145 290.13810391 168.24572525 290.13482608 153.59822381 290.12945233 C141.03129971 290.12498462 128.46438486 290.12576065 115.89746094 290.13037109 C101.30219591 290.13572317 86.70693637 290.13782926 72.11167049 290.13475883 C70.55519041 290.13444028 68.99871032 290.13412591 67.44223022 290.13381577 C66.67642177 290.13366149 65.91061331 290.13350721 65.12159854 290.13334826 C59.72621613 290.13248501 54.3308372 290.13394187 48.93545532 290.13629532 C42.35987482 290.13910053 35.78430626 290.13833978 29.20872712 290.13301457 C25.85408938 290.13038733 22.49948802 290.12989472 19.14484787 290.13266373 C15.50824776 290.13538907 11.87170393 290.131977 8.23510742 290.12698364 C7.17499356 290.12921436 6.1148797 290.13144509 5.02264118 290.13374341 C0.23487027 290.12095935 -4.29356477 290.00785937 -9 289 C-9 288.34 -9 287.68 -9 287 C-10.98567708 287.03255208 -12.97135417 287.06510417 -14.95703125 287.09765625 C-17 287 -17 287 -20 286 C-20 285.34 -20 284.68 -20 284 C-22.31 283.67 -24.62 283.34 -27 283 C-27 282.34 -27 281.68 -27 281 C-28.65 280.67 -30.3 280.34 -32 280 C-32 279.34 -32 278.68 -32 278 C-33.32 277.67 -34.64 277.34 -36 277 C-36 276.34 -36 275.68 -36 275 C-36.99 274.67 -37.98 274.34 -39 274 C-39 273.34 -39 272.68 -39 272 C-39.78375 271.938125 -40.5675 271.87625 -41.375 271.8125 C-42.24125 271.544375 -43.1075 271.27625 -44 271 C-45.1875 268.5 -45.1875 268.5 -46 266 C-46.66 265.67 -47.32 265.34 -48 265 C-48.495 263.515 -48.495 263.515 -49 262 C-49.66 261.67 -50.32 261.34 -51 261 C-51.59355614 258.35139573 -51.74209269 255.70802678 -52 253 C-52.66 253 -53.32 253 -54 253 C-55.13914811 248.90479304 -55.13897347 244.96232205 -55.12698364 240.73880005 C-55.12854363 239.89840396 -55.13010362 239.05800787 -55.13171089 238.19214523 C-55.13570444 235.37173141 -55.13253755 232.55137127 -55.12939453 229.73095703 C-55.13074932 227.71057097 -55.13252969 225.69018515 -55.13470459 223.6697998 C-55.13927026 218.17806727 -55.13749275 212.68635348 -55.1343255 207.19462061 C-55.13179676 201.45053716 -55.13414095 195.70645534 -55.13571167 189.96237183 C-55.13753215 180.31329052 -55.13513054 170.66421686 -55.13037109 161.01513672 C-55.12493179 149.85891517 -55.12668921 138.7027119 -55.1321975 127.54649079 C-55.13673576 117.97187173 -55.13737558 108.39725818 -55.13475883 98.82263839 C-55.1331996 93.10258235 -55.13299258 87.38253489 -55.13629532 81.6624794 C-55.13918425 76.28303421 -55.13717947 70.90361257 -55.13140106 65.52416992 C-55.13007883 63.54969192 -55.13045849 61.57521193 -55.13266373 59.60073471 C-55.13539635 56.90551879 -55.13196814 54.21037835 -55.12698364 51.51516724 C-55.12921436 50.73383741 -55.13144509 49.95250759 -55.13374341 49.14750111 C-55.11884242 44.99299709 -54.81266839 41.07570288 -54 37 C-53.34 37 -52.68 37 -52 37 C-51.87625 35.865625 -51.7525 34.73125 -51.625 33.5625 C-51.315625 31.7990625 -51.315625 31.7990625 -51 30 C-50.34 29.67 -49.68 29.34 -49 29 C-48.67 28.01 -48.34 27.02 -48 26 C-47.34 26 -46.68 26 -46 26 C-45.773125 25.2575 -45.54625 24.515 -45.3125 23.75 C-43.7376598 20.45033483 -41.92496664 19.14021949 -39 17 C-38.46375 16.4225 -37.9275 15.845 -37.375 15.25 C-36 14 -36 14 -33 14 C-32.67 13.01 -32.34 12.02 -32 11 C-31.01 11 -30.02 11 -29 11 C-29 10.34 -29 9.68 -29 9 C-27.02 8.67 -25.04 8.34 -23 8 C-23 7.34 -23 6.68 -23 6 C-20.36 5.67 -17.72 5.34 -15 5 C-15 4.34 -15 3.68 -15 3 C-9.94997778 1.96409801 -5.12583611 1.89748328 0 2 C0 1.34 0 0.68 0 0 Z " fill="#1E1B21" transform="translate(218,74)"/>
<path d="M0 0 C2.97 0.495 2.97 0.495 6 1 C6 1.66 6 2.32 6 3 C6.969375 3.12375 7.93875 3.2475 8.9375 3.375 C10.4534375 3.684375 10.4534375 3.684375 12 4 C12.33 4.66 12.66 5.32 13 6 C13.99 6.33 14.98 6.66 16 7 C16 7.66 16 8.32 16 9 C18.97 9.495 18.97 9.495 22 10 C22 10.66 22 11.32 22 12 C24.97 12.495 24.97 12.495 28 13 C28 13.66 28 14.32 28 15 C30.97 15.495 30.97 15.495 34 16 C34 16.66 34 17.32 34 18 C35.98 18.33 37.96 18.66 40 19 C40 19.66 40 20.32 40 21 C41.98 21.33 43.96 21.66 46 22 C46 22.66 46 23.32 46 24 C47.98 24.33 49.96 24.66 52 25 C52 25.66 52 26.32 52 27 C53.98 27.33 55.96 27.66 58 28 C58.495 29.485 58.495 29.485 59 31 C60.98 31.33 62.96 31.66 65 32 C65 32.66 65 33.32 65 34 C66.98 34.33 68.96 34.66 71 35 C71 35.66 71 36.32 71 37 C72.98 37.33 74.96 37.66 77 38 C77 38.66 77 39.32 77 40 C78.98 40.33 80.96 40.66 83 41 C83 41.66 83 42.32 83 43 C84.98 43.33 86.96 43.66 89 44 C89 44.66 89 45.32 89 46 C90.98 46.33 92.96 46.66 95 47 C95 47.66 95 48.32 95 49 C96.98 49.33 98.96 49.66 101 50 C101 50.66 101 51.32 101 52 C102.98 52.495 102.98 52.495 105 53 C105 53.66 105 54.32 105 55 C106.98 55.33 108.96 55.66 111 56 C111 56.66 111 57.32 111 58 C112.98 58.33 114.96 58.66 117 59 C117 59.66 117 60.32 117 61 C118.98 61.33 120.96 61.66 123 62 C123 62.66 123 63.32 123 64 C124.98 64.33 126.96 64.66 129 65 C129 65.66 129 66.32 129 67 C131.97 67.495 131.97 67.495 135 68 C135 68.66 135 69.32 135 70 C137.97 70.495 137.97 70.495 141 71 C141 71.66 141 72.32 141 73 C143.97 73.495 143.97 73.495 147 74 C147 74.66 147 75.32 147 76 C148.32 76.33 149.64 76.66 151 77 C151 77.66 151 78.32 151 79 C153.97 79.495 153.97 79.495 157 80 C157 80.66 157 81.32 157 82 C159.97 82.495 159.97 82.495 163 83 C163 83.66 163 84.32 163 85 C165.97 85.66 168.94 86.32 172 87 C172 87.99 172 88.98 172 90 C171.01 90 170.02 90 169 90 C169 90.66 169 91.32 169 92 C166.03 92.495 166.03 92.495 163 93 C163 93.66 163 94.32 163 95 C160.03 95.495 160.03 95.495 157 96 C156.67 96.99 156.34 97.98 156 99 C155.01 99 154.02 99 153 99 C153 99.66 153 100.32 153 101 C150.03 101.495 150.03 101.495 147 102 C147 102.66 147 103.32 147 104 C144.03 104.495 144.03 104.495 141 105 C141 105.66 141 106.32 141 107 C138.03 107.495 138.03 107.495 135 108 C135 108.66 135 109.32 135 110 C132.03 110.495 132.03 110.495 129 111 C129 111.66 129 112.32 129 113 C127.02 113.33 125.04 113.66 123 114 C123 114.66 123 115.32 123 116 C121.02 116.33 119.04 116.66 117 117 C117 117.66 117 118.32 117 119 C115.02 119.33 113.04 119.66 111 120 C110.505 121.485 110.505 121.485 110 123 C109.01 123 108.02 123 107 123 C107 123.66 107 124.32 107 125 C105.02 125.33 103.04 125.66 101 126 C101 126.66 101 127.32 101 128 C99.02 128.33 97.04 128.66 95 129 C95 129.66 95 130.32 95 131 C93.02 131.33 91.04 131.66 89 132 C89 132.66 89 133.32 89 134 C87.02 134.33 85.04 134.66 83 135 C83 135.66 83 136.32 83 137 C81.02 137.33 79.04 137.66 77 138 C77 138.66 77 139.32 77 140 C75.02 140.33 73.04 140.66 71 141 C71 141.66 71 142.32 71 143 C69.5459375 143.433125 69.5459375 143.433125 68.0625 143.875 C64.89335797 144.64214682 64.89335797 144.64214682 64 147 C60.9375 147.625 60.9375 147.625 58 148 C58 148.66 58 149.32 58 150 C56.02 150.33 54.04 150.66 52 151 C52 151.66 52 152.32 52 153 C50.02 153.33 48.04 153.66 46 154 C46 154.66 46 155.32 46 156 C44.02 156.33 42.04 156.66 40 157 C40 157.66 40 158.32 40 159 C38.02 159.33 36.04 159.66 34 160 C34 160.66 34 161.32 34 162 C32.02 162.33 30.04 162.66 28 163 C28 163.66 28 164.32 28 165 C26.02 165.33 24.04 165.66 22 166 C22 166.66 22 167.32 22 168 C21.01 168.33 20.02 168.66 19 169 C18.67 169.66 18.34 170.32 18 171 C14.9375 171.625 14.9375 171.625 12 172 C12 172.66 12 173.32 12 174 C10.02 174.33 8.04 174.66 6 175 C6 175.66 6 176.32 6 177 C4.02 177.33 2.04 177.66 0 178 C0 119.26 0 60.52 0 0 Z " fill="#1E1B21" transform="translate(279,134)"/>
<path d="M0 0 C89.43 0 178.86 0 271 0 C271 0.66 271 1.32 271 2 C276.28 2.33 281.56 2.66 287 3 C287 3.66 287 4.32 287 5 C289.31 5.33 291.62 5.66 294 6 C294 6.66 294 7.32 294 8 C295.98 8.33 297.96 8.66 300 9 C300 9.66 300 10.32 300 11 C301.98 11.33 303.96 11.66 306 12 C306 12.66 306 13.32 306 14 C306.99 14.33 307.98 14.66 309 15 C309 15.66 309 16.32 309 17 C310.11375 17.0928125 310.11375 17.0928125 311.25 17.1875 C314.87129113 18.25742693 315.98712115 19.86885512 318 23 C318 23.99 318 24.98 318 26 C318.99 26.33 319.98 26.66 321 27 C321 27.99 321 28.98 321 30 C321.99 30.33 322.98 30.66 324 31 C324 31.99 324 32.98 324 34 C324.66 34 325.32 34 326 34 C327.14147191 38.54374471 327.13977375 43.00794621 327.12698364 47.66065979 C327.12854363 48.5319063 327.13010362 49.40315282 327.13171089 50.30080074 C327.13569879 53.21951263 327.13253978 56.13817249 327.12939453 59.05688477 C327.13074954 61.149628 327.13253004 63.24237099 327.13470459 65.33511353 C327.13926677 71.01879499 327.13749441 76.70245832 327.1343255 82.38614011 C327.13179599 88.3300133 327.13414107 94.27388493 327.13571167 100.21775818 C327.13753149 110.19880452 327.13513182 120.17984346 327.13037109 130.16088867 C327.12492735 141.70741225 327.12669271 153.25391817 327.1321975 164.80044132 C327.13673218 174.70795517 327.13737747 184.6154637 327.13475883 194.52297825 C327.13319821 200.44304661 327.13299646 206.36310668 327.13629532 212.28317451 C327.13917922 217.84730101 327.13718872 223.41140469 327.13140106 228.97552872 C327.13007633 231.02018763 327.13046274 233.06484845 327.13266373 235.10950661 C327.13538639 237.89513848 327.13198033 240.68069671 327.12698364 243.46632385 C327.12921436 244.28003388 327.13144509 245.0937439 327.13374341 245.9321118 C327.12142463 249.46013817 326.94799762 252.60547184 326 256 C325.34 256 324.68 256 324 256 C323.896875 256.928125 323.79375 257.85625 323.6875 258.8125 C322.99468505 262.02464205 322.6120831 263.11930017 320 265 C319.34 265 318.68 265 318 265 C317.67 266.32 317.34 267.64 317 269 C316.34 269 315.68 269 315 269 C314.67 269.99 314.34 270.98 314 272 C313.34 272 312.68 272 312 272 C312 272.66 312 273.32 312 274 C311.01 274.33 310.02 274.66 309 275 C308.2575 275.7734375 308.2575 275.7734375 307.5 276.5625 C306 278 306 278 303 278 C302.67 278.99 302.34 279.98 302 281 C301.01 281 300.02 281 299 281 C299 281.66 299 282.32 299 283 C296.36 283.33 293.72 283.66 291 284 C291 284.66 291 285.32 291 286 C287.7 286.33 284.4 286.66 281 287 C281 287.66 281 288.32 281 289 C275.25520452 290.23021898 269.60862473 290.13928019 263.76489258 290.12698364 C262.62877187 290.12854363 261.49265116 290.13010362 260.32210255 290.13171089 C256.51289894 290.13570141 252.70373515 290.13253874 248.89453125 290.12939453 C246.16449908 290.1301993 243.4344686 290.13249369 240.70443726 290.13470459 C234.0577149 290.13915008 227.41100383 290.13819123 220.76428103 290.13529195 C215.36210967 290.13303313 209.95994147 290.13272747 204.55776978 290.13381577 C203.40426205 290.13404561 203.40426205 290.13404561 202.22745115 290.13428011 C200.66520874 290.13459983 199.10296633 290.13492405 197.54072392 290.1352527 C182.89322145 290.13810391 168.24572525 290.13482608 153.59822381 290.12945233 C141.03129971 290.12498462 128.46438486 290.12576065 115.89746094 290.13037109 C101.30219591 290.13572317 86.70693637 290.13782926 72.11167049 290.13475883 C70.55519041 290.13444028 68.99871032 290.13412591 67.44223022 290.13381577 C66.67642177 290.13366149 65.91061331 290.13350721 65.12159854 290.13334826 C59.72621613 290.13248501 54.3308372 290.13394187 48.93545532 290.13629532 C42.35987482 290.13910053 35.78430626 290.13833978 29.20872712 290.13301457 C25.85408938 290.13038733 22.49948802 290.12989472 19.14484787 290.13266373 C15.50824776 290.13538907 11.87170393 290.131977 8.23510742 290.12698364 C7.17499356 290.12921436 6.1148797 290.13144509 5.02264118 290.13374341 C0.23487027 290.12095935 -4.29356477 290.00785937 -9 289 C-9 288.34 -9 287.68 -9 287 C-10.98567708 287.03255208 -12.97135417 287.06510417 -14.95703125 287.09765625 C-17 287 -17 287 -20 286 C-20 285.34 -20 284.68 -20 284 C-22.31 283.67 -24.62 283.34 -27 283 C-27 282.34 -27 281.68 -27 281 C-28.65 280.67 -30.3 280.34 -32 280 C-32 279.34 -32 278.68 -32 278 C-33.32 277.67 -34.64 277.34 -36 277 C-36 276.34 -36 275.68 -36 275 C-36.99 274.67 -37.98 274.34 -39 274 C-39 273.34 -39 272.68 -39 272 C-39.78375 271.938125 -40.5675 271.87625 -41.375 271.8125 C-42.24125 271.544375 -43.1075 271.27625 -44 271 C-45.1875 268.5 -45.1875 268.5 -46 266 C-46.66 265.67 -47.32 265.34 -48 265 C-48.495 263.515 -48.495 263.515 -49 262 C-49.66 261.67 -50.32 261.34 -51 261 C-51.59355614 258.35139573 -51.74209269 255.70802678 -52 253 C-52.66 253 -53.32 253 -54 253 C-55.13914811 248.90479304 -55.13897347 244.96232205 -55.12698364 240.73880005 C-55.12854363 239.89840396 -55.13010362 239.05800787 -55.13171089 238.19214523 C-55.13570444 235.37173141 -55.13253755 232.55137127 -55.12939453 229.73095703 C-55.13074932 227.71057097 -55.13252969 225.69018515 -55.13470459 223.6697998 C-55.13927026 218.17806727 -55.13749275 212.68635348 -55.1343255 207.19462061 C-55.13179676 201.45053716 -55.13414095 195.70645534 -55.13571167 189.96237183 C-55.13753215 180.31329052 -55.13513054 170.66421686 -55.13037109 161.01513672 C-55.12493179 149.85891517 -55.12668921 138.7027119 -55.1321975 127.54649079 C-55.13673576 117.97187173 -55.13737558 108.39725818 -55.13475883 98.82263839 C-55.1331996 93.10258235 -55.13299258 87.38253489 -55.13629532 81.6624794 C-55.13918425 76.28303421 -55.13717947 70.90361257 -55.13140106 65.52416992 C-55.13007883 63.54969192 -55.13045849 61.57521193 -55.13266373 59.60073471 C-55.13539635 56.90551879 -55.13196814 54.21037835 -55.12698364 51.51516724 C-55.12921436 50.73383741 -55.13144509 49.95250759 -55.13374341 49.14750111 C-55.11884242 44.99299709 -54.81266839 41.07570288 -54 37 C-53.34 37 -52.68 37 -52 37 C-51.87625 35.865625 -51.7525 34.73125 -51.625 33.5625 C-51.315625 31.7990625 -51.315625 31.7990625 -51 30 C-50.34 29.67 -49.68 29.34 -49 29 C-48.67 28.01 -48.34 27.02 -48 26 C-47.34 26 -46.68 26 -46 26 C-45.773125 25.2575 -45.54625 24.515 -45.3125 23.75 C-43.7376598 20.45033483 -41.92496664 19.14021949 -39 17 C-38.46375 16.4225 -37.9275 15.845 -37.375 15.25 C-36 14 -36 14 -33 14 C-32.67 13.01 -32.34 12.02 -32 11 C-31.01 11 -30.02 11 -29 11 C-29 10.34 -29 9.68 -29 9 C-27.02 8.67 -25.04 8.34 -23 8 C-23 7.34 -23 6.68 -23 6 C-20.36 5.67 -17.72 5.34 -15 5 C-15 4.34 -15 3.68 -15 3 C-9.94997778 1.96409801 -5.12583611 1.89748328 0 2 C0 1.34 0 0.68 0 0 Z M-8 9 C-8 9.66 -8 10.32 -8 11 C-11.3 11.33 -14.6 11.66 -18 12 C-18 12.66 -18 13.32 -18 14 C-19.98 14.33 -21.96 14.66 -24 15 C-24 15.66 -24 16.32 -24 17 C-25.65 17.33 -27.3 17.66 -29 18 C-29 18.66 -29 19.32 -29 20 C-30.32 20.33 -31.64 20.66 -33 21 C-33 21.66 -33 22.32 -33 23 C-33.99 23.33 -34.98 23.66 -36 24 C-36 24.66 -36 25.32 -36 26 C-36.99 26.33 -37.98 26.66 -39 27 C-39 27.66 -39 28.32 -39 29 C-39.99 29.33 -40.98 29.66 -42 30 C-42 30.99 -42 31.98 -42 33 C-42.99 33.33 -43.98 33.66 -45 34 C-45.33 36.97 -45.66 39.94 -46 43 C-46.66 43 -47.32 43 -48 43 C-48 110.32 -48 177.64 -48 247 C-47.34 247 -46.68 247 -46 247 C-45.93941406 247.62648438 -45.87882813 248.25296875 -45.81640625 248.8984375 C-45.69072266 250.12433594 -45.69072266 250.12433594 -45.5625 251.375 C-45.48128906 252.18710937 -45.40007812 252.99921875 -45.31640625 253.8359375 C-45.10909886 256.04272805 -45.10909886 256.04272805 -44 258 C-43.34 258 -42.68 258 -42 258 C-41.67 259.32 -41.34 260.64 -41 262 C-40.34 262 -39.68 262 -39 262 C-39 262.99 -39 263.98 -39 265 C-38.01 265.33 -37.02 265.66 -36 266 C-35.38125 266.825 -34.7625 267.65 -34.125 268.5 C-31.72864403 271.31924232 -30.6032236 271.69973137 -27 272 C-27 272.66 -27 273.32 -27 274 C-25.02 274.33 -23.04 274.66 -21 275 C-21 275.66 -21 276.32 -21 277 C-19.02 277.33 -17.04 277.66 -15 278 C-15 278.66 -15 279.32 -15 280 C-11.04 280.33 -7.08 280.66 -3 281 C-3 281.66 -3 282.32 -3 283 C88.08 283 179.16 283 273 283 C273 282.34 273 281.68 273 281 C276.96 280.67 280.92 280.34 285 280 C285 279.34 285 278.68 285 278 C287.64 277.67 290.28 277.34 293 277 C293 276.34 293 275.68 293 275 C294.98 274.67 296.96 274.34 299 274 C299 273.34 299 272.68 299 272 C300.32 271.67 301.64 271.34 303 271 C303 270.34 303 269.68 303 269 C304.11375 268.9071875 304.11375 268.9071875 305.25 268.8125 C308.85122777 267.74850088 309.96756296 266.08629328 312 263 C312 262.34 312 261.68 312 261 C312.66 261 313.32 261 314 261 C315.72780266 260.02977977 315.72780266 260.02977977 317 258 C317.56005673 255.3212381 317.77554153 252.73839339 318 250 C318.66 250 319.32 250 320 250 C320.74329032 244.18993906 321.14514311 238.49990675 321.12698364 232.64451599 C321.12932363 231.45925964 321.12932363 231.45925964 321.13171089 230.25005871 C321.13566678 227.6294955 321.13255242 225.00899127 321.12939453 222.38842773 C321.13075096 220.49862637 321.13253226 218.60882526 321.13470459 216.71902466 C321.1392498 211.60554055 321.13750144 206.4920767 321.1343255 201.37859225 C321.13178722 196.01851266 321.1341435 190.65843476 321.13571167 185.2983551 C321.13752892 176.29956756 321.13513855 167.30078824 321.13037109 158.30200195 C321.12492768 147.90745334 321.1266935 137.51292434 321.1321975 127.1183762 C321.13673931 118.18226086 321.13737399 109.24615141 321.13475883 100.31003529 C321.13320216 94.97787566 321.13298563 89.64572524 321.13629532 84.31356621 C321.13918959 79.30093469 321.13716973 74.28832841 321.13140106 69.27569962 C321.13008189 67.43912485 321.13045324 65.60254795 321.13266373 63.76597404 C321.13540836 61.25345441 321.13195377 58.74101494 321.12698364 56.22850037 C321.13032973 55.14623355 321.13032973 55.14623355 321.13374341 54.04210275 C321.11552582 49.27298114 320.66518023 44.71205663 320 40 C319.34 40 318.68 40 318 40 C317.67 38.02 317.34 36.04 317 34 C316.34 34 315.68 34 315 34 C314.67 32.68 314.34 31.36 314 30 C313.34 30 312.68 30 312 30 C311.67 28.68 311.34 27.36 311 26 C310.34 26 309.68 26 309 26 C309 25.34 309 24.68 309 24 C308.01 23.67 307.02 23.34 306 23 C305.505 22.484375 305.01 21.96875 304.5 21.4375 C302.98527194 19.65404732 302.98527194 19.65404732 300 20 C299.67 19.01 299.34 18.02 299 17 C298.01 17 297.02 17 296 17 C296 16.34 296 15.68 296 15 C292.04 14.505 292.04 14.505 288 14 C288 13.34 288 12.68 288 12 C285.03 11.67 282.06 11.34 279 11 C279 10.34 279 9.68 279 9 C272.93717632 7.93657626 267.03212661 7.85973724 260.88587952 7.87301636 C259.77481683 7.87145637 258.66375414 7.86989638 257.51902288 7.86828911 C253.80051018 7.86430433 250.08203839 7.86745903 246.36352539 7.87060547 C243.69570293 7.8692503 241.02788327 7.86750584 238.36006165 7.86529541 C231.86854924 7.86085281 225.3770484 7.86180752 218.88553555 7.86470805 C213.60830994 7.8669682 208.33108757 7.86727195 203.05386162 7.86618423 C201.92640155 7.86595439 201.92640155 7.86595439 200.77616451 7.86571989 C199.2491171 7.86540016 197.72206969 7.86507595 196.19502228 7.8647473 C181.88127984 7.86189688 167.5675438 7.86517257 153.25380241 7.87054767 C140.97917561 7.8750144 128.70455827 7.87424 116.42993164 7.86962891 C102.16827932 7.86427385 87.90663261 7.86217249 73.64497942 7.86524117 C72.12330433 7.86555971 70.60162924 7.86587408 69.07995415 7.86618423 C67.95698307 7.86641565 67.95698307 7.86641565 66.81132572 7.86665174 C61.54260732 7.86751416 56.27389249 7.8660599 51.00517464 7.86370468 C44.58119036 7.86089611 38.15721831 7.86166722 31.73323543 7.86698543 C28.45733165 7.8696083 25.18145236 7.87011054 21.9055481 7.86733627 C18.35071315 7.86460339 14.79593542 7.86803218 11.24110413 7.87301636 C10.21084376 7.87078564 9.18058339 7.86855491 8.11910301 7.86625659 C2.65162836 7.88112247 -2.59076657 8.19279995 -8 9 Z " fill="#7F7F7F" transform="translate(218,74)"/>
<path d="M0 0 C1.32 0 2.64 0 4 0 C4 0.66 4 1.32 4 2 C6.97 2.495 6.97 2.495 10 3 C10 3.66 10 4.32 10 5 C12.97 5.495 12.97 5.495 16 6 C16 6.66 16 7.32 16 8 C18.97 8.495 18.97 8.495 22 9 C22 9.66 22 10.32 22 11 C22.969375 11.12375 23.93875 11.2475 24.9375 11.375 C25.948125 11.58125 26.95875 11.7875 28 12 C28.33 12.66 28.66 13.32 29 14 C30.485 14.495 30.485 14.495 32 15 C32 15.66 32 16.32 32 17 C33.98 17.33 35.96 17.66 38 18 C38 18.66 38 19.32 38 20 C39.98 20.33 41.96 20.66 44 21 C44 21.66 44 22.32 44 23 C45.98 23.33 47.96 23.66 50 24 C50 24.66 50 25.32 50 26 C51.98 26.33 53.96 26.66 56 27 C56 27.66 56 28.32 56 29 C57.98 29.33 59.96 29.66 62 30 C62 30.66 62 31.32 62 32 C63.98 32.33 65.96 32.66 68 33 C68 33.66 68 34.32 68 35 C69.98 35.33 71.96 35.66 74 36 C74 36.66 74 37.32 74 38 C74.763125 38.144375 75.52625 38.28875 76.3125 38.4375 C79 39 79 39 82 40 C82 40.66 82 41.32 82 42 C83.98 42.33 85.96 42.66 88 43 C88 43.66 88 44.32 88 45 C89.65 45.33 91.3 45.66 93 46 C93 46.66 93 47.32 93 48 C94.98 48.33 96.96 48.66 99 49 C99 49.66 99 50.32 99 51 C100.98 51.33 102.96 51.66 105 52 C105 52.66 105 53.32 105 54 C106.98 54.33 108.96 54.66 111 55 C111 55.66 111 56.32 111 57 C112.98 57.33 114.96 57.66 117 58 C117 58.66 117 59.32 117 60 C118.98 60.33 120.96 60.66 123 61 C123 61.66 123 62.32 123 63 C124.65 63.33 126.3 63.66 128 64 C128 64.66 128 65.32 128 66 C130.97 66.495 130.97 66.495 134 67 C134 67.66 134 68.32 134 69 C136.97 69.495 136.97 69.495 140 70 C140 70.66 140 71.32 140 72 C142.97 72.495 142.97 72.495 146 73 C146 73.66 146 74.32 146 75 C148.97 75.495 148.97 75.495 152 76 C152 76.66 152 77.32 152 78 C153.65 78.33 155.3 78.66 157 79 C157 79.66 157 80.32 157 81 C159.97 81.495 159.97 81.495 163 82 C163 82.66 163 83.32 163 84 C165.97 84.495 165.97 84.495 169 85 C169 85.66 169 86.32 169 87 C170.65 87.33 172.3 87.66 174 88 C174 88.66 174 89.32 174 90 C176.97 90.495 176.97 90.495 180 91 C180 91.66 180 92.32 180 93 C182.97 93.495 182.97 93.495 186 94 C186 94.66 186 95.32 186 96 C186.61875 96.144375 187.2375 96.28875 187.875 96.4375 C190 97 190 97 192 98 C192 98.99 192 99.98 192 101 C191.34 101 190.68 101 190 101 C189.67 101.99 189.34 102.98 189 104 C188.01 104 187.02 104 186 104 C186 104.66 186 105.32 186 106 C183.03 106.495 183.03 106.495 180 107 C180 107.66 180 108.32 180 109 C177.525 109.495 177.525 109.495 175 110 C175 110.66 175 111.32 175 112 C172.03 112.495 172.03 112.495 169 113 C169 113.66 169 114.32 169 115 C166.03 115.495 166.03 115.495 163 116 C163 116.66 163 117.32 163 118 C160.03 118.495 160.03 118.495 157 119 C157 119.66 157 120.32 157 121 C154.525 121.495 154.525 121.495 152 122 C152 122.66 152 123.32 152 124 C149.03 124.495 149.03 124.495 146 125 C146 125.66 146 126.32 146 127 C143.03 127.495 143.03 127.495 140 128 C140 128.66 140 129.32 140 130 C138.02 130.33 136.04 130.66 134 131 C134 131.66 134 132.32 134 133 C132.35 133.33 130.7 133.66 129 134 C129 134.66 129 135.32 129 136 C127.02 136.33 125.04 136.66 123 137 C123 137.66 123 138.32 123 139 C121.02 139.33 119.04 139.66 117 140 C117 140.66 117 141.32 117 142 C115.02 142.33 113.04 142.66 111 143 C111 143.66 111 144.32 111 145 C109.02 145.33 107.04 145.66 105 146 C105 146.66 105 147.32 105 148 C103.02 148.33 101.04 148.66 99 149 C99 149.66 99 150.32 99 151 C97.02 151.33 95.04 151.66 93 152 C93 152.66 93 153.32 93 154 C90.09399739 155.25664978 88.20395416 156 85 156 C85 156.66 85 157.32 85 158 C83.35 158.33 81.7 158.66 80 159 C80 159.66 80 160.32 80 161 C78.02 161.33 76.04 161.66 74 162 C74 162.66 74 163.32 74 164 C72.02 164.33 70.04 164.66 68 165 C68 165.66 68 166.32 68 167 C66.02 167.33 64.04 167.66 62 168 C62 168.66 62 169.32 62 170 C60.02 170.33 58.04 170.66 56 171 C56 171.66 56 172.32 56 173 C54.02 173.33 52.04 173.66 50 174 C50 174.66 50 175.32 50 176 C48.02 176.33 46.04 176.66 44 177 C44 177.66 44 178.32 44 179 C42.02 179.33 40.04 179.66 38 180 C38 180.66 38 181.32 38 182 C37.01 182.33 36.02 182.66 35 183 C34.67 183.66 34.34 184.32 34 185 C30.9375 185.625 30.9375 185.625 28 186 C28 186.66 28 187.32 28 188 C26.02 188.33 24.04 188.66 22 189 C22 189.66 22 190.32 22 191 C20.02 191.33 18.04 191.66 16 192 C16 192.66 16 193.32 16 194 C14.02 194.33 12.04 194.66 10 195 C10 195.66 10 196.32 10 197 C8.02 197.33 6.04 197.66 4 198 C4 198.66 4 199.32 4 200 C2.68 200 1.36 200 0 200 C0 199.34 0 198.68 0 198 C-0.66 198 -1.32 198 -2 198 C-2 133.32 -2 68.64 -2 2 C-1.34 2 -0.68 2 0 2 C0 1.34 0 0.68 0 0 Z M6 11 C6 69.74 6 128.48 6 189 C7.98 188.67 9.96 188.34 12 188 C12 187.34 12 186.68 12 186 C13.98 185.67 15.96 185.34 18 185 C18 184.34 18 183.68 18 183 C18.969375 182.87625 19.93875 182.7525 20.9375 182.625 C21.948125 182.41875 22.95875 182.2125 24 182 C24.33 181.34 24.66 180.68 25 180 C25.99 179.67 26.98 179.34 28 179 C28 178.34 28 177.68 28 177 C29.98 176.67 31.96 176.34 34 176 C34 175.34 34 174.68 34 174 C35.98 173.67 37.96 173.34 40 173 C40 172.34 40 171.68 40 171 C41.98 170.67 43.96 170.34 46 170 C46 169.34 46 168.68 46 168 C47.98 167.67 49.96 167.34 52 167 C52 166.34 52 165.68 52 165 C53.98 164.67 55.96 164.34 58 164 C58 163.34 58 162.68 58 162 C59.98 161.67 61.96 161.34 64 161 C64 160.34 64 159.68 64 159 C64.969375 158.87625 65.93875 158.7525 66.9375 158.625 C67.948125 158.41875 68.95875 158.2125 70 158 C70.33 157.34 70.66 156.68 71 156 C72.97888961 155.27306096 74.97954558 154.60183749 77 154 C77 153.34 77 152.68 77 152 C78.98 151.67 80.96 151.34 83 151 C83 150.34 83 149.68 83 149 C84.98 148.67 86.96 148.34 89 148 C89 147.34 89 146.68 89 146 C90.98 145.67 92.96 145.34 95 145 C95 144.34 95 143.68 95 143 C96.98 142.67 98.96 142.34 101 142 C101 141.34 101 140.68 101 140 C102.98 139.67 104.96 139.34 107 139 C107 138.34 107 137.68 107 137 C108.98 136.67 110.96 136.34 113 136 C113 135.34 113 134.68 113 134 C114.32 133.67 115.64 133.34 117 133 C117 132.34 117 131.68 117 131 C118.98 130.67 120.96 130.34 123 130 C123 129.34 123 128.68 123 128 C124.98 127.67 126.96 127.34 129 127 C129 126.34 129 125.68 129 125 C130.98 124.67 132.96 124.34 135 124 C135 123.34 135 122.68 135 122 C137.97 121.505 137.97 121.505 141 121 C141 120.34 141 119.68 141 119 C143.97 118.505 143.97 118.505 147 118 C147 117.34 147 116.68 147 116 C149.97 115.505 149.97 115.505 153 115 C153 114.34 153 113.68 153 113 C155.97 112.505 155.97 112.505 159 112 C159 111.34 159 110.68 159 110 C160.32 109.67 161.64 109.34 163 109 C163 108.34 163 107.68 163 107 C165.97 106.505 165.97 106.505 169 106 C169 105.34 169 104.68 169 104 C171.97 103.505 171.97 103.505 175 103 C175 102.34 175 101.68 175 101 C175.99 101 176.98 101 178 101 C178 100.01 178 99.02 178 98 C175.03 97.34 172.06 96.68 169 96 C169 95.34 169 94.68 169 94 C166.03 93.505 166.03 93.505 163 93 C163 92.34 163 91.68 163 91 C160.03 90.505 160.03 90.505 157 90 C156.67 89.01 156.34 88.02 156 87 C155.01 87 154.02 87 153 87 C153 86.34 153 85.68 153 85 C150.03 84.505 150.03 84.505 147 84 C147 83.34 147 82.68 147 82 C144.03 81.505 144.03 81.505 141 81 C141 80.34 141 79.68 141 79 C138.03 78.505 138.03 78.505 135 78 C135 77.34 135 76.68 135 76 C133.02 75.67 131.04 75.34 129 75 C129 74.34 129 73.68 129 73 C127.02 72.67 125.04 72.34 123 72 C123 71.34 123 70.68 123 70 C121.02 69.67 119.04 69.34 117 69 C117 68.34 117 67.68 117 67 C115.02 66.67 113.04 66.34 111 66 C110.67 65.01 110.34 64.02 110 63 C109.01 63 108.02 63 107 63 C107 62.34 107 61.68 107 61 C105.02 60.67 103.04 60.34 101 60 C101 59.34 101 58.68 101 58 C99.02 57.67 97.04 57.34 95 57 C95 56.34 95 55.68 95 55 C93.02 54.67 91.04 54.34 89 54 C89 53.34 89 52.68 89 52 C87.02 51.67 85.04 51.34 83 51 C83 50.34 83 49.68 83 49 C81.02 48.67 79.04 48.34 77 48 C77 47.34 77 46.68 77 46 C75.02 45.67 73.04 45.34 71 45 C71 44.34 71 43.68 71 43 C69.02 42.67 67.04 42.34 65 42 C64.505 40.515 64.505 40.515 64 39 C62.02 38.67 60.04 38.34 58 38 C58 37.34 58 36.68 58 36 C56.02 35.67 54.04 35.34 52 35 C52 34.34 52 33.68 52 33 C50.02 32.67 48.04 32.34 46 32 C46 31.34 46 30.68 46 30 C44.02 29.67 42.04 29.34 40 29 C40 28.34 40 27.68 40 27 C38.02 26.67 36.04 26.34 34 26 C34 25.34 34 24.68 34 24 C31.03 23.505 31.03 23.505 28 23 C28 22.34 28 21.68 28 21 C25.03 20.505 25.03 20.505 22 20 C22 19.34 22 18.68 22 18 C21.01 17.67 20.02 17.34 19 17 C18.67 16.34 18.34 15.68 18 15 C14.97065509 14.34227572 14.97065509 14.34227572 12 14 C12 13.34 12 12.68 12 12 C9.03 11.505 9.03 11.505 6 11 Z " fill="#7F7F7F" transform="translate(273,123)"/>
</svg>
