<?xml version="1.0" encoding="UTF-8"?>
<svg version="1.1" xmlns="http://www.w3.org/2000/svg" width="454" height="549">
<path d="M0 0 C149.82 0 299.64 0 454 0 C454 181.17 454 362.34 454 549 C304.18 549 154.36 549 0 549 C0 367.83 0 186.66 0 0 Z " fill="#1E1B21" transform="translate(0,0)"/>
<path d="M0 0 C149.82 0 299.64 0 454 0 C454 181.17 454 362.34 454 549 C304.18 549 154.36 549 0 549 C0 367.83 0 186.66 0 0 Z M77 28 C77 28.66 77 29.32 77 30 C76.34 30 75.68 30 75 30 C75 30.66 75 31.32 75 32 C74.34 32 73.68 32 73 32 C73 33.65 73 35.3 73 37 C72.34 37 71.68 37 71 37 C71 37.66 71 38.32 71 39 C70.01 39 69.02 39 68 39 C68 39.66 68 40.32 68 41 C67.34 41 66.68 41 66 41 C66 41.66 66 42.32 66 43 C65.34 43 64.68 43 64 43 C64 43.66 64 44.32 64 45 C63.34 45 62.68 45 62 45 C62 46.65 62 48.3 62 50 C61.34 50 60.68 50 60 50 C60 50.66 60 51.32 60 52 C59.34 52 58.68 52 58 52 C58 53.32 58 54.64 58 56 C57.01 56 56.02 56 55 56 C55 56.99 55 57.98 55 59 C54.34 59 53.68 59 53 59 C53 59.66 53 60.32 53 61 C52.34 61 51.68 61 51 61 C51 61.66 51 62.32 51 63 C50.34 63 49.68 63 49 63 C49 64.32 49 65.64 49 67 C48.34 67 47.68 67 47 67 C47 67.66 47 68.32 47 69 C46.01 69 45.02 69 44 69 C44 69.99 44 70.98 44 72 C43.34 72 42.68 72 42 72 C42 73.32 42 74.64 42 76 C41.34 76 40.68 76 40 76 C40 76.66 40 77.32 40 78 C39.34 78 38.68 78 38 78 C38 78.66 38 79.32 38 80 C37.34 80 36.68 80 36 80 C36 81.65 36 83.3 36 85 C35.01 85 34.02 85 33 85 C33 228.55 33 372.1 33 520 C150.15 520 267.3 520 388 520 C388 376.45 388 232.9 388 85 C276.13 85 164.26 85 49 85 C49 84.34 49 83.68 49 83 C49.66 83 50.32 83 51 83 C51 81.35 51 79.7 51 78 C51.66 78 52.32 78 53 78 C53 77.34 53 76.68 53 76 C53.66 76 54.32 76 55 76 C55 75.34 55 74.68 55 74 C164.89 74 274.78 74 388 74 C388 70.37 388 66.74 388 63 C281.74 63 175.48 63 66 63 C66 61.68 66 60.36 66 59 C66.66 59 67.32 59 68 59 C68 58.01 68 57.02 68 56 C68.99 56 69.98 56 71 56 C71 55.34 71 54.68 71 54 C176.93 54 282.86 54 392 54 C392 50.37 392 46.74 392 43 C289.7 43 187.4 43 82 43 C82 41.68 82 40.36 82 39 C184.96 39 287.92 39 394 39 C394 194.76 394 350.52 394 511 C397.63 511 401.26 511 405 511 C405 351.61 405 192.22 405 28 C296.76 28 188.52 28 77 28 Z " fill="#1E1B21" transform="translate(0,0)"/>
<path d="M0 0 C108.24 0 216.48 0 328 0 C328 159.39 328 318.78 328 483 C324.37 483 320.74 483 317 483 C317 327.24 317 171.48 317 11 C214.04 11 111.08 11 5 11 C5 12.32 5 13.64 5 15 C107.3 15 209.6 15 315 15 C315 18.63 315 22.26 315 26 C209.07 26 103.14 26 -6 26 C-6 26.66 -6 27.32 -6 28 C-6.99 28 -7.98 28 -9 28 C-9 28.99 -9 29.98 -9 31 C-9.66 31 -10.32 31 -11 31 C-11 32.32 -11 33.64 -11 35 C95.26 35 201.52 35 311 35 C311 38.63 311 42.26 311 46 C201.11 46 91.22 46 -22 46 C-22 46.66 -22 47.32 -22 48 C-22.66 48 -23.32 48 -24 48 C-24 48.66 -24 49.32 -24 50 C-24.66 50 -25.32 50 -26 50 C-26 51.65 -26 53.3 -26 55 C-26.66 55 -27.32 55 -28 55 C-28 55.66 -28 56.32 -28 57 C83.87 57 195.74 57 311 57 C311 200.55 311 344.1 311 492 C193.85 492 76.7 492 -44 492 C-44 348.45 -44 204.9 -44 57 C-43.01 57 -42.02 57 -41 57 C-41 55.35 -41 53.7 -41 52 C-40.34 52 -39.68 52 -39 52 C-39 51.34 -39 50.68 -39 50 C-38.34 50 -37.68 50 -37 50 C-37 49.34 -37 48.68 -37 48 C-36.34 48 -35.68 48 -35 48 C-35 46.68 -35 45.36 -35 44 C-34.34 44 -33.68 44 -33 44 C-33 43.01 -33 42.02 -33 41 C-32.01 41 -31.02 41 -30 41 C-30 40.34 -30 39.68 -30 39 C-29.34 39 -28.68 39 -28 39 C-28 37.68 -28 36.36 -28 35 C-27.34 35 -26.68 35 -26 35 C-26 34.34 -26 33.68 -26 33 C-25.34 33 -24.68 33 -24 33 C-24 32.34 -24 31.68 -24 31 C-23.34 31 -22.68 31 -22 31 C-22 30.01 -22 29.02 -22 28 C-21.01 28 -20.02 28 -19 28 C-19 26.68 -19 25.36 -19 24 C-18.34 24 -17.68 24 -17 24 C-17 23.34 -17 22.68 -17 22 C-16.34 22 -15.68 22 -15 22 C-15 20.35 -15 18.7 -15 17 C-14.34 17 -13.68 17 -13 17 C-13 16.34 -13 15.68 -13 15 C-12.34 15 -11.68 15 -11 15 C-11 14.34 -11 13.68 -11 13 C-10.34 13 -9.68 13 -9 13 C-9 12.34 -9 11.68 -9 11 C-8.01 11 -7.02 11 -6 11 C-6 10.34 -6 9.68 -6 9 C-5.34 9 -4.68 9 -4 9 C-4 7.35 -4 5.7 -4 4 C-3.34 4 -2.68 4 -2 4 C-2 3.34 -2 2.68 -2 2 C-1.34 2 -0.68 2 0 2 C0 1.34 0 0.68 0 0 Z M-33 68 C-33 204.29 -33 340.58 -33 481 C76.89 481 186.78 481 300 481 C300 344.71 300 208.42 300 68 C190.11 68 80.22 68 -33 68 Z " fill="#7F7F7F" transform="translate(77,28)"/>
<path d="M0 0 C10.89 0 21.78 0 33 0 C33 0.66 33 1.32 33 2 C33.66 2 34.32 2 35 2 C35 15.86 35 29.72 35 44 C34.34 44 33.68 44 33 44 C33 45.32 33 46.64 33 48 C33.66 48 34.32 48 35 48 C35 60.21 35 72.42 35 85 C34.34 85 33.68 85 33 85 C33 85.66 33 86.32 33 87 C32.34 87 31.68 87 31 87 C31 87.66 31 88.32 31 89 C20.77 89 10.54 89 0 89 C0 88.34 0 87.68 0 87 C-0.66 87 -1.32 87 -2 87 C-2 58.95 -2 30.9 -2 2 C-1.34 2 -0.68 2 0 2 C0 1.34 0 0.68 0 0 Z " fill="#7F7F7F" transform="translate(86,157)"/>
<path d="M0 0 C9.57 0 19.14 0 29 0 C29 13.2 29 26.4 29 40 C28.01 40 27.02 40 26 40 C26 40.66 26 41.32 26 42 C18.08 42 10.16 42 2 42 C2 42.66 2 43.32 2 44 C1.34 44 0.68 44 0 44 C0 29.48 0 14.96 0 0 Z " fill="#1E1B21" transform="translate(88,161)"/>
<path d="M0 0 C7.92 0 15.84 0 24 0 C24 0.66 24 1.32 24 2 C25.32 2 26.64 2 28 2 C28 3.32 28 4.64 28 6 C28.99 6 29.98 6 31 6 C31 32.73 31 59.46 31 87 C30.01 87 29.02 87 28 87 C28 87.66 28 88.32 28 89 C17.44 89 6.88 89 -4 89 C-4 88.34 -4 87.68 -4 87 C-4.99 87 -5.98 87 -7 87 C-7 59.61 -7 32.22 -7 4 C-6.01 4 -5.02 4 -4 4 C-4 3.34 -4 2.68 -4 2 C-2.68 2 -1.36 2 0 2 C0 1.34 0 0.68 0 0 Z M0 4 C0 4.66 0 5.32 0 6 C-0.66 6 -1.32 6 -2 6 C-2 32.07 -2 58.14 -2 85 C7.24 85 16.48 85 26 85 C26 58.93 26 32.86 26 6 C25.34 6 24.68 6 24 6 C24 5.34 24 4.68 24 4 C16.08 4 8.16 4 0 4 Z " fill="#7F7F7F" transform="translate(145,157)"/>
<path d="M0 0 C0.99 0 1.98 0 3 0 C3 11.55 3 23.1 3 35 C2.01 35 1.02 35 0 35 C0 35.66 0 36.32 0 37 C-8.58 37 -17.16 37 -26 37 C-26 25.45 -26 13.9 -26 2 C-17.42 2 -8.84 2 0 2 C0 1.34 0 0.68 0 0 Z " fill="#1E1B21" transform="translate(114,205)"/>
<path d="M0 0 C7.92 0 15.84 0 24 0 C24 0.66 24 1.32 24 2 C25.65 2 27.3 2 29 2 C29 3.32 29 4.64 29 6 C29.66 6 30.32 6 31 6 C31 32.73 31 59.46 31 87 C30.34 87 29.68 87 29 87 C29 87.66 29 88.32 29 89 C18.11 89 7.22 89 -4 89 C-4 88.34 -4 87.68 -4 87 C-4.66 87 -5.32 87 -6 87 C-6 59.61 -6 32.22 -6 4 C-5.34 4 -4.68 4 -4 4 C-4 3.34 -4 2.68 -4 2 C-2.68 2 -1.36 2 0 2 C0 1.34 0 0.68 0 0 Z M0 4 C0 4.66 0 5.32 0 6 C-0.66 6 -1.32 6 -2 6 C-2 32.07 -2 58.14 -2 85 C7.24 85 16.48 85 26 85 C26 58.93 26 32.86 26 6 C25.34 6 24.68 6 24 6 C24 5.34 24 4.68 24 4 C16.08 4 8.16 4 0 4 Z " fill="#7F7F7F" transform="translate(193,157)"/>
<path d="M0 0 C1.65 0 3.3 0 5 0 C5 10.89 5 21.78 5 33 C5.66 33 6.32 33 7 33 C7 32.34 7 31.68 7 31 C7.66 31 8.32 31 9 31 C9 30.01 9 29.02 9 28 C9.66 28 10.32 28 11 28 C11 27.34 11 26.68 11 26 C11.99 26 12.98 26 14 26 C14 25.34 14 24.68 14 24 C14.66 24 15.32 24 16 24 C16 23.34 16 22.68 16 22 C16.66 22 17.32 22 18 22 C18 21.34 18 20.68 18 20 C18.66 20 19.32 20 20 20 C20 19.34 20 18.68 20 18 C20.66 18 21.32 18 22 18 C22 17.01 22 16.02 22 15 C22.66 15 23.32 15 24 15 C24 14.34 24 13.68 24 13 C24.99 13 25.98 13 27 13 C27 12.34 27 11.68 27 11 C27.66 11 28.32 11 29 11 C29 10.34 29 9.68 29 9 C29.66 9 30.32 9 31 9 C31 8.34 31 7.68 31 7 C31.66 7 32.32 7 33 7 C33 6.01 33 5.02 33 4 C33.66 4 34.32 4 35 4 C35 3.34 35 2.68 35 2 C35.99 2 36.98 2 38 2 C38 1.34 38 0.68 38 0 C39.32 0 40.64 0 42 0 C42 1.32 42 2.64 42 4 C41.34 4 40.68 4 40 4 C40 4.99 40 5.98 40 7 C39.34 7 38.68 7 38 7 C38 7.66 38 8.32 38 9 C37.01 9 36.02 9 35 9 C35 9.66 35 10.32 35 11 C34.34 11 33.68 11 33 11 C33 11.66 33 12.32 33 13 C32.34 13 31.68 13 31 13 C31 13.66 31 14.32 31 15 C30.34 15 29.68 15 29 15 C29 15.99 29 16.98 29 18 C28.34 18 27.68 18 27 18 C27 18.66 27 19.32 27 20 C26.01 20 25.02 20 24 20 C24 20.66 24 21.32 24 22 C23.34 22 22.68 22 22 22 C22 22.66 22 23.32 22 24 C21.34 24 20.68 24 20 24 C20 24.66 20 25.32 20 26 C19.34 26 18.68 26 18 26 C18 26.66 18 27.32 18 28 C17.34 28 16.68 28 16 28 C16 28.99 16 29.98 16 31 C15.34 31 14.68 31 14 31 C14 31.66 14 32.32 14 33 C13.01 33 12.02 33 11 33 C11 33.66 11 34.32 11 35 C10.34 35 9.68 35 9 35 C9 35.66 9 36.32 9 37 C8.34 37 7.68 37 7 37 C7 37.66 7 38.32 7 39 C6.34 39 5.68 39 5 39 C5 41.97 5 44.94 5 48 C5.66 48 6.32 48 7 48 C7 48.66 7 49.32 7 50 C7.66 50 8.32 50 9 50 C9 50.66 9 51.32 9 52 C9.66 52 10.32 52 11 52 C11 52.99 11 53.98 11 55 C11.99 55 12.98 55 14 55 C14 55.66 14 56.32 14 57 C14.66 57 15.32 57 16 57 C16 57.66 16 58.32 16 59 C16.66 59 17.32 59 18 59 C18 59.66 18 60.32 18 61 C18.66 61 19.32 61 20 61 C20 61.66 20 62.32 20 63 C20.66 63 21.32 63 22 63 C22 63.99 22 64.98 22 66 C22.66 66 23.32 66 24 66 C24 66.66 24 67.32 24 68 C24.99 68 25.98 68 27 68 C27 68.66 27 69.32 27 70 C27.66 70 28.32 70 29 70 C29 70.66 29 71.32 29 72 C29.66 72 30.32 72 31 72 C31 72.66 31 73.32 31 74 C31.66 74 32.32 74 33 74 C33 74.99 33 75.98 33 77 C33.66 77 34.32 77 35 77 C35 77.66 35 78.32 35 79 C35.99 79 36.98 79 38 79 C38 79.66 38 80.32 38 81 C38.66 81 39.32 81 40 81 C40 81.66 40 82.32 40 83 C40.66 83 41.32 83 42 83 C42 84.32 42 85.64 42 87 C40.68 87 39.36 87 38 87 C38 86.34 38 85.68 38 85 C37.01 85 36.02 85 35 85 C35 84.34 35 83.68 35 83 C34.34 83 33.68 83 33 83 C33 82.34 33 81.68 33 81 C32.34 81 31.68 81 31 81 C31 80.34 31 79.68 31 79 C30.34 79 29.68 79 29 79 C29 78.34 29 77.68 29 77 C28.34 77 27.68 77 27 77 C27 76.01 27 75.02 27 74 C26.01 74 25.02 74 24 74 C24 73.34 24 72.68 24 72 C23.34 72 22.68 72 22 72 C22 71.34 22 70.68 22 70 C21.34 70 20.68 70 20 70 C20 69.34 20 68.68 20 68 C19.34 68 18.68 68 18 68 C18 67.34 18 66.68 18 66 C17.34 66 16.68 66 16 66 C16 65.01 16 64.02 16 63 C15.34 63 14.68 63 14 63 C14 62.34 14 61.68 14 61 C13.01 61 12.02 61 11 61 C11 60.34 11 59.68 11 59 C10.34 59 9.68 59 9 59 C9 58.34 9 57.68 9 57 C8.34 57 7.68 57 7 57 C7 56.34 7 55.68 7 55 C6.34 55 5.68 55 5 55 C5 65.56 5 76.12 5 87 C3.35 87 1.7 87 0 87 C0 58.29 0 29.58 0 0 Z " fill="#7F7F7F" transform="translate(243,159)"/>
</svg>
